HIERARCHY
ROOT joint_Root
{
	OFFSET 0.0 0.0 0.0
	CHANNELS 6 Xposition Yposition Zposition Zrotation Xrotation Yrotation 
	JOINT Hips
	{
		OFFSET 4.5925 91.4895 -427.239
		CHANNELS 6 Xposition Yposition Zposition Zrotation Xrotation Yrotation 
		JOINT Spine
		{
			OFFSET 15.7357 0.0 0.0
			CHANNELS 6 Xposition Yposition Zposition Zrotation Xrotation Yrotation 
			JOINT Chest
			{
				OFFSET 8.98455 -0.406207 0.0
				CHANNELS 6 Xposition Yposition Zposition Zrotation Xrotation Yrotation 
				JOINT Neck
				{
					OFFSET 16.3773 0.0 0.0
					CHANNELS 6 Xposition Yposition Zposition Zrotation Xrotation Yrotation 
					JOINT Head
					{
						OFFSET 6.45672 0.0 0.0
						CHANNELS 6 Xposition Yposition Zposition Zrotation Xrotation Yrotation 
						End Site
						{
							OFFSET 0.0 0.0 0.0
						}
					}
				}
				JOINT Shoulder_L
				{
					OFFSET 12.9942 -0.242716 4.98039
					CHANNELS 6 Xposition Yposition Zposition Zrotation Xrotation Yrotation 
					JOINT UpperArm_L
					{
						OFFSET 5.34809 0.0 0.0
						CHANNELS 6 Xposition Yposition Zposition Zrotation Xrotation Yrotation 
						JOINT LowerArm_L
						{
							OFFSET 24.3286 1.87007e-05 0.0
							CHANNELS 6 Xposition Yposition Zposition Zrotation Xrotation Yrotation 
							JOINT Hand_L
							{
								OFFSET 22.2916 0.0 0.0
								CHANNELS 6 Xposition Yposition Zposition Zrotation Xrotation Yrotation 
								End Site
								{
									OFFSET 0.0 0.0 0.0
								}
							}
						}
					}
				}
				JOINT Shoulder_R
				{
					OFFSET 12.9945 -0.242716 -4.98039
					CHANNELS 6 Xposition Yposition Zposition Zrotation Xrotation Yrotation 
					JOINT UpperArm_R
					{
						OFFSET -5.34813 0.0 0.0
						CHANNELS 6 Xposition Yposition Zposition Zrotation Xrotation Yrotation 
						JOINT LowerArm_R
						{
							OFFSET -24.3289 0.000322201 0.0
							CHANNELS 6 Xposition Yposition Zposition Zrotation Xrotation Yrotation 
							JOINT Hand_R
							{
								OFFSET -22.2915 -0.000108084 0.0
								CHANNELS 6 Xposition Yposition Zposition Zrotation Xrotation Yrotation 
								End Site
								{
									OFFSET 0.0 0.0 0.0
								}
							}
						}
					}
				}
			}
		}
		JOINT UpperLeg_L
		{
			OFFSET -2.19248 -6.46944 0.0
			CHANNELS 6 Xposition Yposition Zposition Zrotation Xrotation Yrotation 
			JOINT LowerLeg_L
			{
				OFFSET 39.0811 0.0 -1.23785e-05
				CHANNELS 6 Xposition Yposition Zposition Zrotation Xrotation Yrotation 
				JOINT Foot_L
				{
					OFFSET 40.9854 0.0 -1.26872e-05
					CHANNELS 6 Xposition Yposition Zposition Zrotation Xrotation Yrotation 
					JOINT Toes_L
					{
						OFFSET 11.7543 0.0 0.0
						CHANNELS 6 Xposition Yposition Zposition Zrotation Xrotation Yrotation 
						End Site
						{
							OFFSET 0.0 0.0 0.0
						}
					}
				}
			}
		}
		JOINT UpperLeg_R
		{
			OFFSET -2.19251 6.46944 0.0
			CHANNELS 6 Xposition Yposition Zposition Zrotation Xrotation Yrotation 
			JOINT LowerLeg_R
			{
				OFFSET -39.0811 -0.00228153 -0.0401928
				CHANNELS 6 Xposition Yposition Zposition Zrotation Xrotation Yrotation 
				JOINT Foot_R
				{
					OFFSET -40.9854 0.0 0.0
					CHANNELS 6 Xposition Yposition Zposition Zrotation Xrotation Yrotation 
					JOINT Toes_R
					{
						OFFSET -11.7543 0.0 0.0
						CHANNELS 6 Xposition Yposition Zposition Zrotation Xrotation Yrotation 
						End Site
						{
							OFFSET 0.0 0.0 0.0
						}
					}
				}
			}
		}
	}
}
MOTION
Frames:	9
Frame Time:	0.0333333
0.000000 0.000000 0.000000 0.000000 0.000000 -0.000000 -0.867908 81.836700 -0.974062 88.644700 -1.309400 9.866340 15.735700 0.000005 -0.000001 89.687900 79.891900 -89.659300 8.984550 -0.406207 -0.000000 12.449800 -0.107922 0.069084 16.377300 -0.000001 -0.000001 -5.457250 -2.004850 2.079980 6.456720 -0.000001 -0.000000 -11.009600 -1.469220 4.376630 12.994200 -0.242716 4.980390 -91.677500 4.690260 -70.293600 5.348090 -0.000007 -0.000001 -69.414700 24.018900 0.098877 24.328600 0.000019 0.000005 4.546820 31.661100 -8.628100 22.291600 -0.000001 0.000005 4.774250 5.415880 -3.465310 12.994500 -0.242716 -4.980390 87.682700 9.853270 -76.694900 -5.348130 -0.000001 -0.000004 -69.717700 24.620600 4.230210 -24.328900 0.000322 -0.000009 0.988870 6.162360 -9.242140 -22.291500 -0.000108 -0.000004 -0.112859 5.437900 -3.876350 -2.192480 -6.469440 -0.000000 -174.192000 -8.311090 -17.206700 39.081100 -0.000007 -0.000012 -0.619763 0.310061 63.423100 40.985400 -0.000006 -0.000013 -0.556338 2.056810 -86.231700 11.754300 -0.000000 0.000003 -0.000354 -0.002985 -16.688100 -2.192510 6.469440 -0.000001 177.888000 13.225900 164.530000 -39.081100 -0.002282 -0.040193 0.101605 -0.049988 63.074900 -40.985400 0.000008 0.000006 6.330090 1.563810 -86.877700 -11.754300 -0.000006 -0.000006 -0.911372 -1.125140 -17.037100
0.000000 0.000000 0.000000 0.000000 0.000000 -0.000000 -0.918122 82.891000 -0.327408 88.464700 -0.441946 9.794870 15.735700 0.000005 -0.000001 88.783500 80.551200 -88.683600 8.984550 -0.406207 -0.000000 11.127800 -0.395210 0.238214 16.377300 -0.000001 -0.000001 -5.061240 -1.918770 2.037640 6.456720 -0.000001 -0.000000 -10.040100 -1.151770 4.240390 12.994200 -0.242716 4.980390 -91.129000 3.076020 -69.832100 5.348090 -0.000007 -0.000001 -66.061500 10.757400 -1.856130 24.328600 0.000019 0.000005 2.486990 30.874400 -4.835220 22.291600 -0.000001 0.000005 1.507970 5.395860 -2.794710 12.994500 -0.242716 -4.980390 88.047300 7.891710 -76.052100 -5.348130 -0.000001 -0.000004 -65.236400 12.990300 1.124470 -24.328900 0.000322 -0.000009 0.263115 12.261800 -1.271080 -22.291500 -0.000108 -0.000004 -10.559600 5.248370 1.562060 -2.192480 -6.469440 -0.000000 -174.119000 -7.455490 -15.443900 39.081100 -0.000007 -0.000012 -0.597791 0.339423 60.413600 40.985400 -0.000006 -0.000013 -0.627577 2.130630 -85.136000 11.754300 -0.000000 0.000003 -0.000360 -0.003028 -16.689600 -2.192510 6.469440 -0.000001 178.059000 13.352600 166.626000 -39.081100 -0.002282 -0.040193 0.096013 -0.053912 59.848600 -40.985400 0.000008 0.000006 5.938380 1.089640 -85.758500 -11.754300 -0.000006 -0.000006 -0.896394 -1.105910 -17.059400
0.000000 0.000000 0.000000 0.000000 0.000000 -0.000000 -0.856731 84.963400 0.368714 88.578600 0.062641 9.088820 15.735700 0.000005 -0.000001 89.158200 81.765400 -89.125400 8.984550 -0.406207 -0.000000 8.701550 -0.240492 0.083886 16.377300 -0.000001 -0.000001 -3.645250 -2.067500 2.147000 6.456720 -0.000001 -0.000000 -8.745580 -1.189580 4.093030 12.994200 -0.242716 4.980390 -90.538800 1.423260 -69.256500 5.348090 -0.000007 -0.000001 -59.393600 -0.033643 -6.552290 24.328600 0.000019 0.000005 2.283520 30.691000 -4.466780 22.291600 -0.000001 0.000005 2.607670 5.366820 -1.894470 12.994500 -0.242716 -4.980390 88.567700 5.412830 -75.150700 -5.348130 -0.000001 -0.000004 -58.041500 -1.960450 -3.190420 -24.328900 0.000322 -0.000009 -0.002310 15.652900 0.000068 -22.291500 -0.000108 -0.000004 -11.040500 5.140870 4.158210 -2.192480 -6.469440 -0.000000 -174.492000 -7.005350 -12.584500 39.081100 -0.000007 -0.000012 -0.508793 0.369040 54.046900 40.985400 -0.000006 -0.000013 -0.703163 2.111550 -82.395900 11.754300 -0.000000 0.000003 -0.000337 -0.002868 -16.684000 -2.192510 6.469440 -0.000001 177.835000 13.857700 169.522000 -39.081100 -0.002282 -0.040193 0.081049 -0.057450 53.562100 -40.985400 0.000008 0.000006 5.804340 1.588960 -82.815500 -11.754300 -0.000006 -0.000006 -0.880033 -1.080770 -17.335100
0.000000 0.000000 0.000000 0.000000 0.000000 -0.000000 -0.701897 87.333400 1.131500 88.916700 0.175000 8.420570 15.735700 0.000005 -0.000001 90.345100 83.233300 -90.518700 8.984550 -0.406207 -0.000000 5.767270 0.084330 -0.351085 16.377300 -0.000001 -0.000001 -0.891017 -2.061970 2.319540 6.456720 -0.000001 -0.000000 -6.705490 -1.440210 4.067020 12.994200 -0.242716 4.980390 -89.850700 -0.376384 -68.394300 5.348090 -0.000007 -0.000001 -51.704000 -10.112900 -14.647300 24.328600 0.000019 0.000005 2.751130 32.042100 -5.175420 22.291600 -0.000001 0.000005 5.153380 5.347220 -1.300270 12.994500 -0.242716 -4.980390 89.113300 3.102140 -74.032900 -5.348130 -0.000001 -0.000004 -49.542600 -12.201700 -9.898590 -24.328900 0.000322 -0.000009 -0.001005 17.384100 0.000077 -22.291500 -0.000108 -0.000004 -8.539970 5.147370 4.013840 -2.192480 -6.469440 -0.000000 -174.983000 -7.335360 -8.567800 39.081100 -0.000007 -0.000012 -0.397530 0.388188 45.682100 40.985400 -0.000006 -0.000013 -0.604386 2.415260 -78.724300 11.754300 -0.000000 0.000003 -0.000270 -0.002379 -16.666500 -2.192510 6.469440 -0.000001 176.957000 15.294200 173.247000 -39.081100 -0.002282 -0.040193 0.058835 -0.054146 45.744800 -40.985400 0.000008 0.000006 5.860380 3.563930 -78.713500 -11.754300 -0.000006 -0.000006 -1.124380 -1.372720 -17.836700
0.000000 0.000000 0.000000 0.000000 0.000000 -0.000000 -0.571367 89.206600 1.558790 89.070400 -0.070412 6.552790 15.735700 0.000005 -0.000001 91.203800 85.133600 -91.460700 8.984550 -0.406207 -0.000000 1.965160 0.217345 -0.517002 16.377300 -0.000001 -0.000001 2.663540 -2.000230 2.103430 6.456720 -0.000001 -0.000000 -4.424830 -1.361500 3.968130 12.994200 -0.242716 4.980390 -89.349100 -1.592280 -67.763400 5.348090 -0.000007 -0.000001 -46.006400 -23.664000 -25.933100 24.328600 0.000019 0.000005 3.371920 27.544800 -7.269630 22.291600 -0.000001 0.000005 5.793450 5.311340 -0.250189 12.994500 -0.242716 -4.980390 89.544400 1.510760 -73.215400 -5.348130 -0.000001 -0.000004 -42.346100 -24.704100 -20.265400 -24.328900 0.000322 -0.000009 -0.008731 15.057000 0.000065 -22.291500 -0.000108 -0.000004 -2.935020 5.200240 2.787020 -2.192480 -6.469440 -0.000000 -175.322000 -8.421870 -6.302280 39.081100 -0.000007 -0.000012 -0.298659 0.382032 38.017600 40.985400 -0.000006 -0.000013 -0.456535 3.027700 -75.164400 11.754300 -0.000000 0.000003 -0.000189 -0.001764 -16.644200 -2.192510 6.469440 -0.000001 176.609000 17.237900 174.944000 -39.081100 -0.002282 -0.040193 0.041647 -0.047546 38.900200 -40.985400 0.000008 0.000006 6.122730 6.169380 -74.637900 -11.754300 -0.000006 -0.000006 -1.301410 -1.565250 -18.633500
0.000000 0.000000 0.000000 0.000000 0.000000 -0.000000 -0.467501 90.313600 1.657450 89.016300 -0.529672 4.847560 15.735700 0.000005 -0.000001 91.439000 86.636500 -91.626100 8.984550 -0.406207 -0.000000 -1.040840 0.183271 -0.372493 16.377300 -0.000001 -0.000001 5.272030 -1.845850 1.747340 6.456720 -0.000001 -0.000000 -2.505800 -1.412540 3.671330 12.994200 -0.242716 4.980390 -88.962200 -2.633290 -68.476200 5.348090 -0.000007 -0.000001 -44.147800 -36.868100 -38.494600 24.328600 0.000019 0.000005 6.675510 22.345000 -17.135200 22.291600 -0.000001 0.000005 9.166440 5.366740 -1.738780 12.994500 -0.242716 -4.980390 89.992600 0.024829 -73.984500 -5.348130 -0.000001 -0.000004 -38.804100 -36.076700 -31.967700 -24.328900 0.000322 -0.000009 -0.837901 -4.403690 -10.013800 -22.291500 -0.000108 -0.000004 5.377530 5.474870 -4.992370 -2.192480 -6.469440 -0.000000 -175.491000 -9.395750 -5.329140 39.081100 -0.000007 -0.000012 -0.241633 0.374192 32.852600 40.985400 -0.000006 -0.000013 -0.397593 3.435240 -72.651500 11.754300 -0.000000 0.000003 -0.000171 -0.001622 -16.639000 -2.192510 6.469440 -0.000001 176.749000 18.532700 175.644000 -39.081100 -0.002282 -0.040193 0.030686 -0.040598 34.008600 -40.985400 0.000008 0.000006 6.191810 8.237380 -72.079400 -11.754300 -0.000006 -0.000006 -1.314650 -1.574760 -18.824500
0.000000 0.000000 0.000000 0.000000 0.000000 -0.000000 -0.320228 90.775600 1.736950 89.192500 -1.351150 3.978320 15.735700 0.000005 -0.000001 92.455400 87.417700 -92.550100 8.984550 -0.406207 -0.000000 -2.605920 0.229762 -0.184276 16.377300 -0.000001 -0.000001 5.787430 -1.460790 1.562960 6.456720 -0.000001 -0.000000 -1.765990 -1.551520 3.101550 12.994200 -0.242716 4.980390 -88.177300 -4.640440 -68.530400 5.348090 -0.000007 -0.000001 -36.320100 -41.075800 -45.355400 24.328600 0.000019 0.000005 10.402100 15.873600 -33.856400 22.291600 -0.000001 0.000005 19.845800 5.458210 -4.927230 12.994500 -0.242716 -4.980390 90.515000 -1.815720 -74.165900 -5.348130 -0.000001 -0.000004 -30.645400 -39.257200 -39.037500 -24.328900 0.000322 -0.000009 -5.569000 -8.099380 -34.956600 -22.291500 -0.000108 -0.000004 21.057900 5.644870 -14.099900 -2.192480 -6.469440 -0.000000 -175.919000 -9.918030 -4.770730 39.081100 -0.000007 -0.000012 -0.209078 0.358121 30.277600 40.985400 -0.000006 -0.000013 -0.447673 3.132810 -71.488200 11.754300 -0.000000 0.000003 -0.000171 -0.001624 -16.639100 -2.192510 6.469440 -0.000001 176.584000 18.860100 176.495000 -39.081100 -0.002282 -0.040193 0.025402 -0.037086 30.793500 -40.985400 0.000008 0.000006 6.293800 9.459680 -71.851700 -11.754300 -0.000006 -0.000006 -0.683335 -0.832601 -18.114800
0.000000 0.000000 0.000000 0.000000 0.000000 -0.000000 -0.178114 90.919000 1.758510 89.344600 -1.979620 3.763870 15.735700 0.000005 -0.000001 95.027900 87.462400 -95.037400 8.984550 -0.406207 -0.000000 -2.710400 0.445506 -0.008529 16.377300 -0.000001 -0.000001 3.824490 -1.576310 1.688810 6.456720 -0.000001 -0.000000 -2.081020 -1.466540 2.631720 12.994200 -0.242716 4.980390 -87.514900 -5.890000 -67.077500 5.348090 -0.000007 -0.000001 -24.984400 -46.283600 -49.924400 24.328600 0.000019 0.000005 17.670700 14.446700 -51.924900 22.291600 -0.000001 0.000005 28.295100 5.476380 -5.518620 12.994500 -0.242716 -4.980390 91.160400 -3.746300 -72.787700 -5.348130 -0.000001 -0.000004 -21.444300 -45.230800 -46.055300 -24.328900 0.000322 -0.000009 -1.549380 -1.037280 -56.114600 -22.291500 -0.000108 -0.000004 29.018600 5.673590 -17.917300 -2.192480 -6.469440 -0.000000 -176.281000 -9.838250 -4.441460 39.081100 -0.000007 -0.000012 -0.200978 0.357418 29.349600 40.985400 -0.000006 -0.000013 -0.555584 2.446730 -71.114700 11.754300 -0.000000 0.000003 -0.000167 -0.001592 -16.637900 -2.192510 6.469440 -0.000001 176.242000 19.139700 177.356000 -39.081100 -0.002282 -0.040193 0.020634 -0.031350 28.932900 -40.985400 0.000008 0.000006 6.331390 10.435300 -72.359700 -11.754300 -0.000006 -0.000006 -0.047556 -0.073253 -17.331900
0.000000 0.000000 0.000000 0.000000 0.000000 -0.000000 -0.163415 90.994100 1.793830 89.272500 -1.759320 3.692810 15.735700 0.000005 -0.000001 95.890600 87.574000 -95.956700 8.984550 -0.406207 -0.000000 -2.939480 0.503917 -0.119262 16.377300 -0.000001 -0.000001 3.150950 -2.240000 2.474260 6.456720 -0.000001 -0.000000 -2.709980 -1.834260 3.020160 12.994200 -0.242716 4.980390 -86.438200 -7.778450 -65.306500 5.348090 -0.000007 -0.000001 -27.485100 -52.753000 -64.308900 24.328600 0.000019 0.000005 19.579100 12.785200 -58.110600 22.291600 -0.000001 0.000005 32.880300 5.544380 -8.440600 12.994500 -0.242716 -4.980390 92.235300 -6.222380 -70.199100 -5.348130 -0.000001 -0.000004 -19.431400 -50.351600 -57.869800 -24.328900 0.000322 -0.000009 -0.775279 -0.451533 -59.518400 -22.291500 -0.000108 -0.000004 30.002400 5.679250 -19.281300 -2.192480 -6.469440 -0.000000 -176.282000 -9.411910 -4.331700 39.081100 -0.000007 -0.000012 -0.193167 0.348990 28.964900 40.985400 -0.000006 -0.000013 -0.593874 2.296130 -70.935100 11.754300 -0.000000 0.000003 -0.000171 -0.001620 -16.638900 -2.192510 6.469440 -0.000001 176.155000 19.887300 178.034000 -39.081100 -0.002282 -0.040193 0.018334 -0.028485 27.815000 -40.985400 0.000008 0.000006 6.428990 10.981700 -72.559500 -11.754300 -0.000006 -0.000006 -0.001037 -0.015926 -17.220800
